<?xml version="1.0" encoding="UTF-8" standalone="no"?>
<!-- Created with Inkscape (http://www.inkscape.org/) -->

<svg
   width="128"
   height="128"
   viewBox="0 0 33.866665 33.866667"
   version="1.1"
   id="svg1"
   inkscape:version="1.4 (86a8ad7, 2024-10-11)"
   sodipodi:docname="gear_icon.svg"
   xml:space="preserve"
   xmlns:inkscape="http://www.inkscape.org/namespaces/inkscape"
   xmlns:sodipodi="http://sodipodi.sourceforge.net/DTD/sodipodi-0.dtd"
   xmlns="http://www.w3.org/2000/svg"
   xmlns:svg="http://www.w3.org/2000/svg"><sodipodi:namedview
     id="namedview1"
     pagecolor="#383838"
     bordercolor="#eeeeee"
     borderopacity="1"
     inkscape:showpageshadow="0"
     inkscape:pageopacity="0"
     inkscape:pagecheckerboard="0"
     inkscape:deskcolor="#505050"
     inkscape:document-units="mm"
     showgrid="true"
     inkscape:zoom="2.8756734"
     inkscape:cx="27.645699"
     inkscape:cy="72.504757"
     inkscape:window-width="1920"
     inkscape:window-height="1009"
     inkscape:window-x="-8"
     inkscape:window-y="-8"
     inkscape:window-maximized="1"
     inkscape:current-layer="layer1"><inkscape:grid
       id="grid2"
       units="px"
       originx="0"
       originy="0"
       spacingx="1.0583333"
       spacingy="1.058333"
       empcolor="#0099e5"
       empopacity="0.30196078"
       color="#0099e5"
       opacity="0.14901961"
       empspacing="4"
       enabled="true"
       visible="true" /></sodipodi:namedview><defs
     id="defs1" /><g
     inkscape:label="Layer 1"
     inkscape:groupmode="layer"
     id="layer1"><path
       id="path5"
       style="fill:#ffffff;fill-opacity:1;stroke-width:1.6631"
       d="M 16.933333 5.2916667 A 11.641666 11.641664 0 0 0 5.2916667 16.933333 A 11.641666 11.641664 0 0 0 16.933333 28.575 A 11.641666 11.641664 0 0 0 28.575 16.933333 A 11.641666 11.641664 0 0 0 16.933333 5.2916667 z M 16.933333 9.525 A 7.4083328 7.4083314 0 0 1 24.341667 16.933333 A 7.4083328 7.4083314 0 0 1 16.933333 24.341667 A 7.4083328 7.4083314 0 0 1 9.525 16.933333 A 7.4083328 7.4083314 0 0 1 16.933333 9.525 z " /><rect
       style="fill:#ffffff;fill-opacity:1;stroke-width:2.11667"
       id="rect5"
       width="4.2333326"
       height="4.2333326"
       x="14.816667"
       y="2.1166661" /><rect
       style="fill:#ffffff;fill-opacity:1;stroke-width:2.11667"
       id="rect6"
       width="4.2333326"
       height="4.2333326"
       x="27.516668"
       y="14.816662" /><rect
       style="fill:#ffffff;fill-opacity:1;stroke-width:2.11667"
       id="rect6-1"
       width="4.2333326"
       height="4.2333326"
       x="14.816667"
       y="27.516659" /><rect
       style="fill:#ffffff;fill-opacity:1;stroke-width:2.11667"
       id="rect6-7"
       width="4.2333326"
       height="4.2333326"
       x="2.1166675"
       y="14.816662" /><rect
       style="fill:#ffffff;fill-opacity:1;stroke-width:2.11667"
       id="rect5-2"
       width="4.2333326"
       height="4.2333326"
       x="21.830679"
       y="-14.816668"
       transform="rotate(45)" /><rect
       style="fill:#ffffff;fill-opacity:1;stroke-width:2.11667"
       id="rect6-3"
       width="4.2333326"
       height="4.2333326"
       x="34.530678"
       y="-2.1166701"
       transform="rotate(45)" /><rect
       style="fill:#ffffff;fill-opacity:1;stroke-width:2.11667"
       id="rect6-1-2"
       width="4.2333326"
       height="4.2333326"
       x="21.830679"
       y="10.583327"
       transform="rotate(45)" /><rect
       style="fill:#ffffff;fill-opacity:1;stroke-width:2.11667"
       id="rect6-7-2"
       width="4.2333326"
       height="4.2333326"
       x="9.1306782"
       y="-2.1166701"
       transform="rotate(45)" /></g></svg>
