<?xml version="1.0" encoding="UTF-8" standalone="no"?>
<!-- Created with Inkscape (http://www.inkscape.org/) -->

<svg
   width="128"
   height="128"
   viewBox="0 0 33.866665 33.866667"
   version="1.1"
   id="svg1"
   inkscape:version="1.4 (86a8ad7, 2024-10-11)"
   sodipodi:docname="next_icon.svg"
   xml:space="preserve"
   xmlns:inkscape="http://www.inkscape.org/namespaces/inkscape"
   xmlns:sodipodi="http://sodipodi.sourceforge.net/DTD/sodipodi-0.dtd"
   xmlns="http://www.w3.org/2000/svg"
   xmlns:svg="http://www.w3.org/2000/svg"><sodipodi:namedview
     id="namedview1"
     pagecolor="#383838"
     bordercolor="#eeeeee"
     borderopacity="1"
     inkscape:showpageshadow="0"
     inkscape:pageopacity="0"
     inkscape:pagecheckerboard="0"
     inkscape:deskcolor="#505050"
     inkscape:document-units="mm"
     showgrid="true"
     inkscape:zoom="4.0668163"
     inkscape:cx="42.908257"
     inkscape:cy="63.317342"
     inkscape:window-width="1920"
     inkscape:window-height="1009"
     inkscape:window-x="-8"
     inkscape:window-y="-8"
     inkscape:window-maximized="1"
     inkscape:current-layer="layer1"><inkscape:grid
       id="grid2"
       units="px"
       originx="0"
       originy="0"
       spacingx="1.0583333"
       spacingy="1.058333"
       empcolor="#0099e5"
       empopacity="0.30196078"
       color="#0099e5"
       opacity="0.14901961"
       empspacing="4"
       enabled="true"
       visible="true" /></sodipodi:namedview><defs
     id="defs1" /><g
     inkscape:label="Layer 1"
     inkscape:groupmode="layer"
     id="layer1"><path
       style="fill:#ffffff;stroke-linecap:square"
       d="M 16.933333,2.1166661 15.334196,3.6962767 C 19.68199,7.9615864 24.191239,12.704738 28.575,16.933328 24.233363,21.204259 19.6518,25.843209 15.345272,30.149731 l 1.588061,1.60026 C 21.759419,26.918502 26.797948,21.645502 31.75,16.933328 26.866724,12.145087 21.769472,6.9528038 16.933333,2.1166661 Z"
       id="rect1"
       sodipodi:nodetypes="ccccccc" /><path
       style="fill:#ffffff;stroke-linecap:square"
       d="M 3.7047287,2.0649125 2.1055907,3.6445231 C 6.4533847,7.9098328 10.962634,12.652984 15.346395,16.881574 11.004759,21.152505 6.4231947,25.791455 2.1166667,30.097977 l 1.588062,1.60026 C 8.5308137,26.866748 13.569344,21.593748 18.521395,16.881574 13.63812,12.093333 8.5408667,6.9010502 3.7047287,2.0649125 Z"
       id="rect1-8"
       sodipodi:nodetypes="ccccccc" /></g></svg>
