<?xml version="1.0" encoding="UTF-8" standalone="no"?>
<!-- Created with Inkscape (http://www.inkscape.org/) -->

<svg
   width="128"
   height="128"
   viewBox="0 0 33.866665 33.866667"
   version="1.1"
   id="svg1"
   inkscape:version="1.4 (86a8ad7, 2024-10-11)"
   sodipodi:docname="trash_icon.svg"
   xml:space="preserve"
   xmlns:inkscape="http://www.inkscape.org/namespaces/inkscape"
   xmlns:sodipodi="http://sodipodi.sourceforge.net/DTD/sodipodi-0.dtd"
   xmlns="http://www.w3.org/2000/svg"
   xmlns:svg="http://www.w3.org/2000/svg"><sodipodi:namedview
     id="namedview1"
     pagecolor="#383838"
     bordercolor="#eeeeee"
     borderopacity="1"
     inkscape:showpageshadow="0"
     inkscape:pageopacity="0"
     inkscape:pagecheckerboard="0"
     inkscape:deskcolor="#505050"
     inkscape:document-units="mm"
     showgrid="true"
     inkscape:zoom="4.0668163"
     inkscape:cx="36.51505"
     inkscape:cy="55.940565"
     inkscape:window-width="1920"
     inkscape:window-height="1009"
     inkscape:window-x="-8"
     inkscape:window-y="-8"
     inkscape:window-maximized="1"
     inkscape:current-layer="layer1"><inkscape:grid
       id="grid2"
       units="px"
       originx="0"
       originy="0"
       spacingx="1.0583333"
       spacingy="1.058333"
       empcolor="#0099e5"
       empopacity="0.30196078"
       color="#0099e5"
       opacity="0.14901961"
       empspacing="4"
       enabled="true"
       visible="true" /></sodipodi:namedview><defs
     id="defs1" /><g
     inkscape:label="Layer 1"
     inkscape:groupmode="layer"
     id="layer1"><rect
       style="fill:#ffffff;stroke-width:1.41111"
       id="rect1"
       width="25.4"
       height="2.1166663"
       x="4.2333331"
       y="6.349998" /><path
       id="rect1-8"
       style="fill:#ffffff;stroke-width:4.07353"
       d="M 6.35 10.583333 L 6.35 31.75 L 27.516667 31.75 L 27.516667 10.583333 L 6.35 10.583333 z M 9.525 12.7 L 11.641667 12.7 L 11.641667 29.633333 L 9.525 29.633333 L 9.525 12.7 z M 15.875 12.7 L 17.991667 12.7 L 17.991667 29.633333 L 15.875 29.633333 L 15.875 12.7 z M 22.225 12.7 L 24.341667 12.7 L 24.341667 29.633333 L 22.225 29.633333 L 22.225 12.7 z " /><path
       id="rect2"
       style="fill:#ffffff;stroke-width:2.11667"
       d="m 12.7,2.1166661 h 8.466666 v 4.2333326 l -2.116666,-5e-7 0,-2.1166661 h -4.233333 l 0,2.1166661 -2.116667,5e-7 z"
       sodipodi:nodetypes="ccccccccc" /></g></svg>
